<svg width="1113" height="619" viewBox="0 0 1113 619" fill="none" xmlns="http://www.w3.org/2000/svg">
<path d="M562.94 92.1688C563.699 93.8241 565.086 95.1097 566.793 95.7429C568.501 96.3761 570.39 96.305 572.045 95.5452C573.701 94.7854 574.986 93.3992 575.619 91.6915C576.253 89.9839 576.182 88.0946 575.422 86.4393C575.422 86.4393 575.422 86.4393 575.422 86.4393C575.359 86.3167 575.326 86.1597 575.447 86.5711C575.474 86.6715 575.522 86.854 575.567 87.1704C575.598 87.4248 575.688 88.0407 575.536 88.9877C575.439 89.5782 575.21 90.4048 574.707 91.2492C574.182 92.1802 573.13 93.2075 572.119 93.7196C571.16 94.2342 570.202 94.4177 569.607 94.466C569.042 94.5139 568.611 94.4827 568.275 94.441C567.159 94.2671 567.035 94.1216 566.896 94.0829C566.782 94.0325 566.806 94.0397 566.851 94.0646C566.956 94.1195 567.193 94.2562 567.465 94.4165C568.038 94.7472 568.688 95.1681 569.849 95.7146C570.491 95.977 571.078 96.3513 572.907 96.6103C573.783 96.6842 575.444 96.8563 577.603 95.6583C579.878 94.3595 580.849 92.1347 581.119 90.9036C581.141 90.8526 581.081 90.9273 581.225 90.7415C581.366 90.5686 581.761 90.2039 582.405 89.7686L581.959 90.0485C587.587 86.6102 592.433 85.1723 598.717 84.6865C603.256 84.3405 607.805 84.1622 612.363 84.1442C624.112 84.1026 635.367 89.5912 646.779 91.3441C661.846 93.6637 676.823 97.0976 691.726 101.208C696.367 102.489 701.014 103.821 705.652 105.192C716.217 108.316 726.724 111.637 737.175 115.127C759.111 122.466 780.769 130.648 801.75 140.012C813.112 145.09 824.312 150.538 835.345 156.33C853.302 165.758 870.757 176.16 887.796 187.208C892.905 190.52 897.984 193.911 903.002 197.358C920.495 209.367 937.347 222.142 953.365 235.892C961.005 242.443 968.449 249.227 975.742 256.206C981.916 262.113 988.012 268.073 994.007 274.102C1006.76 286.972 1019.28 300.218 1029.77 313.95C1035.27 321.207 1040.74 328.398 1045.95 335.587C1055.16 348.307 1063.59 361.084 1069.28 374.408C1070.9 378.203 1072.3 382.041 1073.46 385.932C1078.11 401.551 1082.53 417.033 1084.92 432.143C1086.4 441.647 1087.03 451.022 1085.92 459.487C1083.24 479.713 1078.56 499.395 1069.02 515.444C1068.93 515.605 1068.83 515.766 1068.74 515.927C1067.27 518.391 1066.05 520.992 1064.54 523.394C1062.04 527.381 1059.47 531.268 1056.78 535.003C1050.22 544.136 1043.02 552.43 1034.84 559.126C1028.68 564.182 1022.63 569.01 1016.47 573.235C1007.95 579.098 999.14 583.644 990.13 585.98C986.539 586.923 982.944 587.781 979.349 588.543C964.799 591.633 950.164 592.939 936.02 591.736C932.025 591.401 928.061 591.042 924.135 590.638C907.815 588.97 892.044 586.25 877.444 581.072C873.245 579.587 869.089 578.079 864.984 576.518C845.782 569.282 827.664 560.478 810.31 549.737C805.777 546.943 801.251 544.075 796.751 541.164C782.177 531.713 767.779 521.835 754.121 511.482C750.705 508.884 747.361 506.264 744.082 503.588C732.22 493.957 721.584 483.547 711.725 471.89C703.754 462.504 696.047 452.877 688.977 443.053C684.359 436.614 679.966 430.037 676.412 423.573C672.942 417.239 669.576 410.981 666.444 404.705C659.059 389.971 653.056 375.049 649.21 359.56C647.677 353.422 646.465 347.219 645.57 340.936C643.66 327.4 642.305 313.664 642.083 300.399C642.037 296.952 642.077 293.579 642.295 290.487C642.4 288.985 642.573 287.495 642.741 286.652C642.778 286.459 642.816 286.306 642.817 286.296C642.818 286.289 642.809 286.321 642.774 286.416C642.738 286.512 642.689 286.649 642.548 286.951C642.4 287.25 642.242 287.603 641.725 288.35C641.462 288.717 641.2 289.066 640.686 289.61C640.142 290.178 639.416 290.825 638.437 291.442C636.512 292.826 632.241 293.814 629.392 293.072C626.223 292.317 625.259 291.386 624.24 290.623C630.78 296.279 638.372 306.835 644.703 316.507C653.412 329.906 661.294 344.128 668.539 358.691C673.541 368.77 678.381 378.883 682.746 389.025C686.153 396.968 689.339 404.984 691.675 412.721C695.336 424.974 698.702 437.14 700.549 448.944C701.738 456.58 702.223 464.02 701.654 471.192C700.315 488.538 698.762 505.099 692.761 518.249C690.903 522.351 689.15 526.325 687.363 530.102C682.704 540.05 677.512 548.685 671.23 553.19C664.669 558.007 658.036 562.449 651.241 566.221C635.712 574.921 619.166 579.634 602.749 578.426C600.932 578.302 599.115 578.112 597.288 577.853C578.017 575.094 558.92 571.96 541.882 566.071C538.762 564.982 535.721 563.792 532.805 562.488C514.069 554.125 495.941 545.671 479.579 535.157C473.711 531.395 468.072 527.378 462.698 523.072C453.346 515.569 444.199 507.605 435.369 499.391C428.188 492.703 421.231 485.809 414.594 478.723C408.981 472.727 403.497 466.609 398.18 460.4C390.511 451.411 382.967 442.073 376.939 432.852C373.684 427.819 370.504 422.818 367.593 417.883C363.039 410.153 359.185 402.587 357.765 396.003C355.827 387.217 354.519 378.217 354.258 369.696C353.866 360.588 355.485 351.088 358.133 347.826C359.372 346.113 360.498 344.855 360.917 344.523C361.114 344.35 361.076 344.441 360.627 344.641C360.198 344.842 359.309 345.066 358.547 345.048C359.449 345.04 360.019 345.162 359.687 345.092C359.51 345.04 359.054 344.936 358.195 344.444C357.362 343.969 356.039 342.938 355.05 341.375C356.014 342.882 356.918 344.352 357.784 345.839C369.515 365.833 374.033 389.914 373.642 414.202C373.581 418.312 373.385 422.368 373.058 426.514C371.317 447.443 369.368 469.14 361.857 483.765C360.475 486.406 359.165 488.987 357.881 491.484C351.848 503.446 345.543 513.776 338.577 517.741C328.812 523.594 318.745 528.534 308.548 531.81C294.411 536.39 280.116 537.454 267.063 533.732C254.65 530.263 242.687 526.074 231.354 520.797C225.841 518.233 220.497 515.414 215.347 512.321C192.114 498.208 170.622 479.54 150.84 459.555C149.595 458.293 148.367 457.033 147.154 455.769C134.204 442.41 123.019 427.531 111.913 411.647C106.402 403.58 100.465 393.761 94.7706 384.441C91.4099 378.915 87.9744 373.218 84.6387 367.666C68.9072 341.472 53.3513 315.054 37.6688 288.674C34.2813 282.98 30.5935 277.548 26.9082 272.019C25.6657 270.153 17.7513 272.381 15.2655 271.348C14.3228 271.006 13.3447 270.463 12.4569 269.981C11.5505 269.47 10.816 269.149 9.89828 268.506C9.00463 267.904 8.36157 267.665 7.39931 266.966C6.95887 266.682 6.58527 266.508 6.16056 266.28C5.90156 266.098 5.66433 265.958 5.44914 265.862C5.34153 265.813 5.23942 265.776 5.14278 265.75C5.12077 265.77 4.98419 265.643 4.86084 265.578C4.78823 265.548 4.74262 265.481 4.50591 265.489C4.38437 265.494 4.23524 265.61 4.20256 265.706C4.16289 265.8 4.17186 265.858 4.17773 265.901C4.20641 265.952 4.26609 266.002 4.32712 266.038C4.38911 266.074 4.44743 266.095 4.50576 266.095C4.5641 266.095 4.62243 266.075 4.68446 266.038C4.74553 266.002 4.80526 265.953 4.83398 265.901C4.83398 265.901 4.83398 265.901 4.83398 265.901C4.0729 269.82 5.47816 273.347 4.98293 277.625C4.75347 280.288 -0.91625 286.226 0.1282 288.155C3.23187 293.898 6.23691 299.697 9.60889 305.364C25.2416 331.66 40.8471 358.113 56.7261 384.466C60.096 390.055 63.5802 395.799 67.0137 401.396C72.9513 411.004 78.5557 420.282 85.4657 430.271C97.0207 446.576 109.657 463.146 124.256 477.943C125.6 479.32 126.95 480.679 128.303 482.023C149.772 503.221 172.961 522.705 199.81 538.598C205.959 542.186 212.259 545.42 218.67 548.346C231.839 554.361 245.466 558.991 259.037 562.702C278.769 568.238 299.699 566.165 317.693 560.284C330.781 556.068 342.769 550.086 353.955 543.39C370.915 532.804 377.951 517.336 384.478 505.158C385.815 502.558 387.098 500.021 388.364 497.581C400.148 473.183 400.366 450.456 402.265 428.655C402.588 423.918 402.768 419.254 402.797 414.494C403.002 386.421 397.331 357.007 382.392 331.508C381.306 329.643 380.173 327.801 379.04 326.03C375.137 320.107 369.89 318.35 366.753 317.5C363.425 316.671 360.887 316.591 358.71 316.562C351.841 316.435 345.793 319.886 342.49 322.785C339.018 325.77 336.951 328.548 335.165 330.935C325.383 345.416 325.726 358.584 325.724 370.531C326.075 381.549 327.7 391.967 330.004 402.232C332.806 414.251 338.153 423.633 343.159 432.278C346.415 437.797 349.741 443.045 353.074 448.238C360.43 459.537 368.331 469.296 376.53 478.934C382.185 485.537 388.011 491.942 393.986 498.206C401.211 505.777 408.676 512.996 416.308 520.008C425.7 528.623 435.336 536.89 445.375 544.841C451.59 549.758 458.058 554.305 464.674 558.509C483.15 570.259 502.642 579.214 521.622 587.622C525.359 589.277 529.129 590.731 532.893 592.027C553.402 598.972 573.68 602.003 593.592 604.742C596.07 605.075 598.547 605.316 601.031 605.465C623.663 606.994 645.913 599.658 664.125 589.199C672.169 584.651 679.668 579.537 686.784 574.257C699.395 564.745 705.698 552.103 710.911 541.16C712.876 536.946 714.658 532.829 716.418 528.88C724.791 509.777 725.798 490.588 727.179 473.127C727.895 463.493 727.177 454.022 725.768 445.016C723.559 431.073 719.887 418.087 716.102 405.39C713.264 396.031 709.798 387.427 706.173 378.953C701.535 368.182 696.588 357.721 691.546 347.37C684.053 332.035 675.939 316.982 666.594 302.364C659.328 291.435 653.039 281.159 641.097 270.308C639.659 269.21 638.386 268.083 634.716 267.21C631.427 266.371 626.67 267.46 624.363 269.093C623.201 269.826 622.298 270.621 621.58 271.371C620.899 272.091 620.519 272.589 620.118 273.151C619.318 274.305 618.964 275.027 618.616 275.75C617.403 278.447 617.153 279.941 616.833 281.332C616.269 284.114 616.06 286.287 615.876 288.464C615.539 292.795 615.483 296.703 615.506 300.672C615.67 315.719 617.036 330.162 619.001 344.654C619.991 351.851 621.356 358.99 623.096 366.041C627.453 383.837 634.335 400.88 642.282 416.755C645.652 423.52 649.188 430.099 652.715 436.545C657.139 444.584 662.005 451.8 667.03 458.82C674.703 469.479 682.795 479.558 691.158 489.392C701.888 502.082 714.144 514.047 727.051 524.48C730.622 527.387 734.219 530.191 737.85 532.938C752.363 543.878 767.163 553.919 782.236 563.652C786.888 566.648 791.572 569.603 796.307 572.509C814.98 584.039 835.118 593.777 855.545 601.413C859.902 603.061 864.261 604.633 868.595 606.158C886.06 612.311 904.038 615.266 921.474 616.988C925.672 617.404 929.849 617.742 933.995 618.033C951.407 619.269 968.553 617.129 984.842 613.396C988.872 612.473 992.856 611.439 996.797 610.319C1009.44 606.748 1020.6 600.457 1030.5 593.659C1037.66 588.739 1044.23 583.463 1050.55 578.282C1060.92 569.775 1069.49 559.765 1076.9 549.464C1079.93 545.245 1082.79 540.974 1085.53 536.686C1087.18 534.105 1089.05 531.679 1090.62 529.09C1090.72 528.921 1090.82 528.752 1090.92 528.583C1103.39 507.796 1108.57 484.905 1111.66 462.968C1113.31 450.794 1112.41 439.19 1110.77 428.169C1108.07 410.694 1103.42 394.395 1098.73 378.424C1097.28 373.511 1095.53 368.709 1093.55 364.059C1086.57 347.689 1077 333.435 1067.35 320.082C1061.87 312.528 1056.29 305.222 1050.76 297.979C1038.77 282.453 1025.73 268.938 1012.48 255.652C1006.26 249.455 999.97 243.388 993.619 237.393C985.982 230.183 978.155 223.138 970.151 216.292C953.364 201.919 935.716 188.554 917.576 176.124C912.365 172.551 907.09 169.037 901.782 165.606C884.077 154.161 865.789 143.625 847.063 133.893C835.555 127.914 823.869 122.27 811.995 117.002C790.042 107.278 767.662 98.8907 745.009 91.4523C734.217 87.915 723.356 84.6347 712.4 81.6008C707.591 80.2695 702.765 78.9871 697.93 77.7607C682.195 73.7742 666.254 70.539 649.983 68.458C637.514 66.8726 624.689 70.3581 612.307 70.41C607.436 70.4289 602.539 70.6207 597.676 70.9916C590.08 71.3974 581.284 74.2102 575.109 78.1441L574.663 78.424C572.316 79.9573 568.763 83.1732 567.762 87.7046C567.948 86.8206 568.757 84.8916 570.73 83.7675C572.601 82.7376 573.895 82.926 574.448 82.9627C575.076 83.0415 575.284 83.1318 575.429 83.1757C575.569 83.2248 575.595 83.2405 575.59 83.2375C575.525 83.2133 575.027 82.9354 574.436 82.5828C574.128 82.4023 573.785 82.1973 573.292 81.9345C573.045 81.8043 572.775 81.6626 572.338 81.4726C571.906 81.3079 571.438 81.0314 570.005 80.816C569.577 80.7627 569.061 80.7286 568.419 80.7831C567.74 80.8382 566.692 81.0441 565.665 81.5959C564.58 82.1462 563.465 83.2353 562.897 84.2388C562.355 85.1483 562.098 86.0583 561.986 86.7399C561.809 87.824 561.91 88.6541 561.962 89.0479C561.994 89.2844 562.034 89.4966 562.076 89.6923C562.119 89.8881 562.147 89.9985 562.185 90.1394C562.493 91.2224 562.704 91.6334 562.94 92.1688Z" fill="white"/>
<path d="M539.776 78.5412C531.945 73.3966 534.855 61.2739 544.168 60.244L693.361 43.7449C700.245 42.9836 705.8 49.2829 704.184 56.0182L680.442 154.935C678.826 161.67 671.017 164.762 665.228 160.959L539.776 78.5412Z" fill="white"/>
</svg>
